<svg width="17" height="15" viewBox="0 0 17 15" fill="none" xmlns="http://www.w3.org/2000/svg">
<path d="M1.88889 1.95652C1.88889 1.43762 2.0879 0.939971 2.44213 0.573052C2.79637 0.206133 3.27681 0 3.77778 0H13.8519C14.3528 0 14.8333 0.206133 15.1875 0.573052C15.5417 0.939971 15.7407 1.43762 15.7407 1.95652V8.47826C15.7407 8.99716 15.5417 9.49481 15.1875 9.86173C14.8333 10.2287 14.3528 10.4348 13.8519 10.4348H8.81481V9.13043H13.8519C14.0188 9.13043 14.179 9.06172 14.2971 8.93942C14.4151 8.81711 14.4815 8.65123 14.4815 8.47826V1.95652C14.4815 1.78355 14.4151 1.61767 14.2971 1.49537C14.179 1.37306 14.0188 1.30435 13.8519 1.30435H3.77778C3.61079 1.30435 3.45064 1.37306 3.33256 1.49537C3.21448 1.61767 3.14815 1.78355 3.14815 1.95652H2.51852C2.30067 1.95652 2.09037 1.98522 1.88889 2.0387V1.95652ZM16.3704 13.0435H8.81481V11.7391H16.3704C16.5374 11.7391 16.6975 11.8078 16.8156 11.9301C16.9337 12.0525 17 12.2183 17 12.3913C17 12.5643 16.9337 12.7302 16.8156 12.8525C16.6975 12.9748 16.5374 13.0435 16.3704 13.0435ZM3.77778 13.0435C3.94477 13.0435 4.10491 12.9748 4.22299 12.8525C4.34107 12.7302 4.40741 12.5643 4.40741 12.3913C4.40741 12.2183 4.34107 12.0525 4.22299 11.9301C4.10491 11.8078 3.94477 11.7391 3.77778 11.7391C3.61079 11.7391 3.45064 11.8078 3.33256 11.9301C3.21448 12.0525 3.14815 12.2183 3.14815 12.3913C3.14815 12.5643 3.21448 12.7302 3.33256 12.8525C3.45064 12.9748 3.61079 13.0435 3.77778 13.0435ZM0 5.21739C0 4.69849 0.199007 4.20084 0.553243 3.83392C0.907478 3.467 1.38792 3.26087 1.88889 3.26087H5.66667C6.16763 3.26087 6.64808 3.467 7.00231 3.83392C7.35655 4.20084 7.55556 4.69849 7.55556 5.21739V13.0435C7.55556 13.5624 7.35655 14.06 7.00231 14.4269C6.64808 14.7939 6.16763 15 5.66667 15H1.88889C1.38792 15 0.907478 14.7939 0.553243 14.4269C0.199007 14.06 0 13.5624 0 13.0435V5.21739ZM1.88889 4.56522C1.7219 4.56522 1.56175 4.63393 1.44367 4.75624C1.3256 4.87854 1.25926 5.04442 1.25926 5.21739V13.0435C1.25926 13.2164 1.3256 13.3823 1.44367 13.5046C1.56175 13.6269 1.7219 13.6957 1.88889 13.6957H5.66667C5.83365 13.6957 5.9938 13.6269 6.11188 13.5046C6.22996 13.3823 6.2963 13.2164 6.2963 13.0435V5.21739C6.2963 5.04442 6.22996 4.87854 6.11188 4.75624C5.9938 4.63393 5.83365 4.56522 5.66667 4.56522H1.88889Z" fill="#414141"/>
</svg>
