<svg width="12" height="17" viewBox="0 0 12 17" fill="none" xmlns="http://www.w3.org/2000/svg">
<path d="M7.2 0H4.8C3.52739 0.00140618 2.3073 0.513591 1.40742 1.42418C0.507549 2.33476 0.00138964 3.56938 0 4.85714V12.1429C0.00138964 13.4306 0.507549 14.6652 1.40742 15.5758C2.3073 16.4864 3.52739 16.9986 4.8 17H7.2C8.47261 16.9986 9.69271 16.4864 10.5926 15.5758C11.4925 14.6652 11.9986 13.4306 12 12.1429V4.85714C11.9986 3.56938 11.4925 2.33476 10.5926 1.42418C9.69271 0.513591 8.47261 0.00140618 7.2 0ZM10.8 12.1429C10.799 13.1087 10.4194 14.0347 9.74449 14.7176C9.06957 15.4006 8.15448 15.7847 7.2 15.7857H4.8C3.84553 15.7847 2.93043 15.4006 2.25551 14.7176C1.5806 14.0347 1.20099 13.1087 1.2 12.1429V4.85714C1.20099 3.89131 1.5806 2.96531 2.25551 2.28236C2.93043 1.59941 3.84553 1.21529 4.8 1.21429H7.2C8.15448 1.21529 9.06957 1.59941 9.74449 2.28236C10.4194 2.96531 10.799 3.89131 10.8 4.85714V12.1429ZM6.6 3.64286V7.28571C6.6 7.44674 6.53679 7.60117 6.42426 7.71503C6.31174 7.82889 6.15913 7.89286 6 7.89286C5.84087 7.89286 5.68826 7.82889 5.57574 7.71503C5.46321 7.60117 5.4 7.44674 5.4 7.28571V3.64286C5.4 3.48183 5.46321 3.3274 5.57574 3.21354C5.68826 3.09968 5.84087 3.03571 6 3.03571C6.15913 3.03571 6.31174 3.09968 6.42426 3.21354C6.53679 3.3274 6.6 3.48183 6.6 3.64286Z" fill="#414141"/>
</svg>
