<svg width="16" height="16" viewBox="0 0 16 16" fill="none" xmlns="http://www.w3.org/2000/svg">
<path d="M5.66667 2.55556L5.58447 2.06236C5.34337 2.10254 5.16667 2.31114 5.16667 2.55556H5.66667ZM15 1H15.5V0.40977L14.9178 0.506803L15 1ZM15.0822 4.60431C15.3546 4.55891 15.5386 4.3013 15.4932 4.02891C15.4478 3.75653 15.1902 3.57252 14.9178 3.61791L15.0822 4.60431ZM5.58447 5.17347C5.31208 5.21887 5.12807 5.47648 5.17347 5.74887C5.21887 6.02125 5.47648 6.20526 5.74887 6.15986L5.58447 5.17347ZM5.16667 12.6667C5.16667 13.6792 4.34586 14.5 3.33333 14.5V15.5C4.89814 15.5 6.16667 14.2315 6.16667 12.6667H5.16667ZM3.33333 14.5C2.32081 14.5 1.5 13.6792 1.5 12.6667H0.5C0.5 14.2315 1.76853 15.5 3.33333 15.5V14.5ZM1.5 12.6667C1.5 11.6541 2.32081 10.8333 3.33333 10.8333V9.83333C1.76853 9.83333 0.5 11.1019 0.5 12.6667H1.5ZM3.33333 10.8333C4.34586 10.8333 5.16667 11.6541 5.16667 12.6667H6.16667C6.16667 11.1019 4.89814 9.83333 3.33333 9.83333V10.8333ZM6.16667 12.6667V2.55556H5.16667V12.6667H6.16667ZM14.9178 0.506803L5.58447 2.06236L5.74887 3.04875L15.0822 1.4932L14.9178 0.506803ZM14.9178 3.61791L5.58447 5.17347L5.74887 6.15986L15.0822 4.60431L14.9178 3.61791ZM14.5 11.1111C14.5 12.1236 13.6792 12.9444 12.6667 12.9444V13.9444C14.2315 13.9444 15.5 12.6759 15.5 11.1111H14.5ZM12.6667 12.9444C11.6541 12.9444 10.8333 12.1236 10.8333 11.1111H9.83333C9.83333 12.6759 11.1019 13.9444 12.6667 13.9444V12.9444ZM10.8333 11.1111C10.8333 10.0986 11.6541 9.27778 12.6667 9.27778V8.27778C11.1019 8.27778 9.83333 9.5463 9.83333 11.1111H10.8333ZM12.6667 9.27778C13.6792 9.27778 14.5 10.0986 14.5 11.1111H15.5C15.5 9.5463 14.2315 8.27778 12.6667 8.27778V9.27778ZM15.5 11.1111V1H14.5V11.1111H15.5Z" fill="#414141"/>
</svg>
