<svg width="16" height="12" viewBox="0 0 16 12" fill="none" xmlns="http://www.w3.org/2000/svg">
<path d="M0.196029 9.42327L2.86224 11.8226C2.92421 11.8788 2.99793 11.9234 3.07915 11.9539C3.16038 11.9843 3.2475 12 3.33549 12C3.42349 12 3.51061 11.9843 3.59183 11.9539C3.67306 11.9234 3.74678 11.8788 3.80874 11.8226L6.47496 9.42327C6.60047 9.31032 6.67099 9.15713 6.67099 8.99739C6.67099 8.83766 6.60047 8.68447 6.47496 8.57152C6.34944 8.45857 6.17921 8.39511 6.00171 8.39511C5.8242 8.39511 5.65397 8.45857 5.52845 8.57152L4.00205 9.95111V2.99913C4.00205 2.84005 3.93182 2.68748 3.80682 2.57499C3.68181 2.4625 3.51227 2.3993 3.33549 2.3993C3.15871 2.3993 2.98917 2.4625 2.86417 2.57499C2.73917 2.68748 2.66894 2.84005 2.66894 2.99913V9.95111L1.14253 8.57152C1.01702 8.45857 0.846785 8.39511 0.669281 8.39511C0.491776 8.39511 0.321543 8.45857 0.196029 8.57152C0.0705137 8.68447 0 8.83766 0 8.99739C0 9.15713 0.0705137 9.31032 0.196029 9.42327ZM15.3334 1.19965H3.33549C3.15871 1.19965 2.98917 1.13646 2.86417 1.02397C2.73917 0.911478 2.66894 0.75891 2.66894 0.599826C2.66894 0.440742 2.73917 0.288174 2.86417 0.175685C2.98917 0.0631959 3.15871 0 3.33549 0H15.3334C15.5102 0 15.6798 0.0631959 15.8048 0.175685C15.9298 0.288174 16 0.440742 16 0.599826C16 0.75891 15.9298 0.911478 15.8048 1.02397C15.6798 1.13646 15.5102 1.19965 15.3334 1.19965ZM15.3334 4.79861H6.00171C5.82492 4.79861 5.65538 4.73541 5.53038 4.62292C5.40538 4.51043 5.33515 4.35787 5.33515 4.19878C5.33515 4.0397 5.40538 3.88713 5.53038 3.77464C5.65538 3.66215 5.82492 3.59896 6.00171 3.59896H15.3334C15.5102 3.59896 15.6798 3.66215 15.8048 3.77464C15.9298 3.88713 16 4.0397 16 4.19878C16 4.35787 15.9298 4.51043 15.8048 4.62292C15.6798 4.73541 15.5102 4.79861 15.3334 4.79861ZM8.66792 7.19791H15.3334C15.5102 7.19791 15.6798 7.26111 15.8048 7.3736C15.9298 7.48609 16 7.63866 16 7.79774C16 7.95682 15.9298 8.10939 15.8048 8.22188C15.6798 8.33437 15.5102 8.39757 15.3334 8.39757H8.66792C8.49114 8.39757 8.3216 8.33437 8.19659 8.22188C8.07159 8.10939 8.00136 7.95682 8.00136 7.79774C8.00136 7.63866 8.07159 7.48609 8.19659 7.3736C8.3216 7.26111 8.49114 7.19791 8.66792 7.19791Z" fill="#414141"/>
</svg>
