<svg width="16" height="16" viewBox="0 0 16 16" fill="none" xmlns="http://www.w3.org/2000/svg">
<path d="M1 7.82085C1 5.11341 1 3.75933 1.82042 2.9186C2.64013 2.07715 3.96036 2.07715 6.60011 2.07715H9.40016C12.0399 2.07715 13.3601 2.07715 14.1798 2.9186C15.0003 3.75933 15.0003 5.11341 15.0003 7.82085V9.25677C15.0003 11.9642 15.0003 13.3183 14.1798 14.159C13.3601 15.0005 12.0399 15.0005 9.40016 15.0005H6.60011C3.96036 15.0005 2.64013 15.0005 1.82042 14.159C1 13.3183 1 11.9642 1 9.25677V7.82085Z" stroke="#737373"/>
<path d="M4.49991 2.07694V1M11.5 2.07694V1M1.34985 5.66675H14.6501" stroke="#737373" stroke-linecap="round"/>
<path d="M12.2002 11.4106C12.2002 11.601 12.1265 11.7836 11.9952 11.9183C11.8639 12.0529 11.6858 12.1286 11.5002 12.1286C11.3145 12.1286 11.1365 12.0529 11.0052 11.9183C10.8739 11.7836 10.8002 11.601 10.8002 11.4106C10.8002 11.2202 10.8739 11.0376 11.0052 10.9029C11.1365 10.7683 11.3145 10.6926 11.5002 10.6926C11.6858 10.6926 11.8639 10.7683 11.9952 10.9029C12.1265 11.0376 12.2002 11.2202 12.2002 11.4106ZM12.2002 8.53876C12.2002 8.72918 12.1265 8.91179 11.9952 9.04644C11.8639 9.18108 11.6858 9.25673 11.5002 9.25673C11.3145 9.25673 11.1365 9.18108 11.0052 9.04644C10.8739 8.91179 10.8002 8.72918 10.8002 8.53876C10.8002 8.34835 10.8739 8.16573 11.0052 8.03109C11.1365 7.89644 11.3145 7.8208 11.5002 7.8208C11.6858 7.8208 11.8639 7.89644 11.9952 8.03109C12.1265 8.16573 12.2002 8.34835 12.2002 8.53876ZM8.70014 11.4106C8.70014 11.601 8.62639 11.7836 8.49511 11.9183C8.36383 12.0529 8.18578 12.1286 8.00013 12.1286C7.81447 12.1286 7.63642 12.0529 7.50514 11.9183C7.37387 11.7836 7.30011 11.601 7.30011 11.4106C7.30011 11.2202 7.37387 11.0376 7.50514 10.9029C7.63642 10.7683 7.81447 10.6926 8.00013 10.6926C8.18578 10.6926 8.36383 10.7683 8.49511 10.9029C8.62639 11.0376 8.70014 11.2202 8.70014 11.4106ZM8.70014 8.53876C8.70014 8.72918 8.62639 8.91179 8.49511 9.04644C8.36383 9.18108 8.18578 9.25673 8.00013 9.25673C7.81447 9.25673 7.63642 9.18108 7.50514 9.04644C7.37387 8.91179 7.30011 8.72918 7.30011 8.53876C7.30011 8.34835 7.37387 8.16573 7.50514 8.03109C7.63642 7.89644 7.81447 7.8208 8.00013 7.8208C8.18578 7.8208 8.36383 7.89644 8.49511 8.03109C8.62639 8.16573 8.70014 8.34835 8.70014 8.53876ZM5.20008 11.4106C5.20008 11.601 5.12632 11.7836 4.99505 11.9183C4.86377 12.0529 4.68572 12.1286 4.50006 12.1286C4.31441 12.1286 4.13636 12.0529 4.00508 11.9183C3.8738 11.7836 3.80005 11.601 3.80005 11.4106C3.80005 11.2202 3.8738 11.0376 4.00508 10.9029C4.13636 10.7683 4.31441 10.6926 4.50006 10.6926C4.68572 10.6926 4.86377 10.7683 4.99505 10.9029C5.12632 11.0376 5.20008 11.2202 5.20008 11.4106ZM5.20008 8.53876C5.20008 8.72918 5.12632 8.91179 4.99505 9.04644C4.86377 9.18108 4.68572 9.25673 4.50006 9.25673C4.31441 9.25673 4.13636 9.18108 4.00508 9.04644C3.8738 8.91179 3.80005 8.72918 3.80005 8.53876C3.80005 8.34835 3.8738 8.16573 4.00508 8.03109C4.13636 7.89644 4.31441 7.8208 4.50006 7.8208C4.68572 7.8208 4.86377 7.89644 4.99505 8.03109C5.12632 8.16573 5.20008 8.34835 5.20008 8.53876Z" fill="#737373"/>
</svg>
