<svg width="17" height="17" viewBox="0 0 17 17" fill="none" xmlns="http://www.w3.org/2000/svg">
<path d="M6.69409 1.89978C7.1531 1.50914 7.3826 1.31381 7.62187 1.19906C7.89592 1.06802 8.19583 1 8.49959 1C8.80336 1 9.10327 1.06802 9.37732 1.19906C9.6174 1.313 9.8469 1.50832 10.3051 1.89978C10.4882 2.05603 10.5794 2.13335 10.677 2.19846C10.9007 2.34834 11.1518 2.45235 11.416 2.50446C11.5307 2.52725 11.6504 2.53701 11.8896 2.55654C12.4911 2.60375 12.7914 2.62816 13.042 2.71687C13.3283 2.81791 13.5884 2.98174 13.8031 3.19635C14.0179 3.41096 14.1819 3.67092 14.2831 3.95716C14.3718 4.20863 14.3954 4.50894 14.4435 5.10955C14.4622 5.34882 14.4719 5.46845 14.4947 5.58402C14.5468 5.8477 14.651 6.09918 14.8007 6.32217C14.8658 6.41983 14.944 6.51098 15.0994 6.69409C15.49 7.1531 15.6862 7.3826 15.8009 7.62187C15.932 7.89591 16 8.19583 16 8.49959C16 8.80336 15.932 9.10327 15.8009 9.37732C15.687 9.61658 15.4909 9.84609 15.0994 10.3051C14.993 10.4234 14.8933 10.5476 14.8007 10.677C14.6509 10.9004 14.5469 11.1513 14.4947 11.4152C14.4719 11.5307 14.4622 11.6504 14.4435 11.8896C14.3954 12.4902 14.3718 12.7914 14.2831 13.042C14.1819 13.3283 14.0179 13.5882 13.8031 13.8028C13.5884 14.0174 13.3283 14.1813 13.042 14.2823C12.7914 14.3718 12.4911 14.3954 11.8896 14.4426C11.6504 14.4622 11.5315 14.4719 11.416 14.4947C11.1518 14.5468 10.9007 14.6508 10.677 14.8007C10.5479 14.8933 10.424 14.993 10.3059 15.0994C9.8469 15.49 9.6174 15.6854 9.37813 15.8001C9.10409 15.9312 8.80417 15.9992 8.50041 15.9992C8.19664 15.9992 7.89673 15.9312 7.62268 15.8001C7.3826 15.6862 7.1531 15.4909 6.69491 15.0994C6.57658 14.993 6.45241 14.8933 6.32298 14.8007C6.09934 14.6508 5.84816 14.5468 5.58402 14.4947C5.42722 14.4686 5.26909 14.4512 5.11037 14.4426C4.50894 14.3954 4.20863 14.371 3.95797 14.2823C3.67167 14.1813 3.41161 14.0174 3.19685 13.8028C2.9821 13.5882 2.81809 13.3283 2.71687 13.042C2.62816 12.7914 2.60456 12.4902 2.55654 11.8896C2.54842 11.7306 2.5313 11.5722 2.50527 11.4152C2.45307 11.1513 2.34906 10.9004 2.19927 10.677C2.13416 10.5794 2.05603 10.4882 1.90059 10.3051C1.50995 9.84609 1.31381 9.61658 1.19906 9.37732C1.06802 9.10327 1 8.80336 1 8.49959C1 8.19583 1.06802 7.89591 1.19906 7.62187C1.31381 7.3826 1.50914 7.1531 1.90059 6.69409C2.05603 6.51098 2.13416 6.41983 2.19927 6.32217C2.34906 6.09877 2.45307 5.84788 2.50527 5.58402C2.52806 5.46845 2.53783 5.34882 2.55654 5.10955C2.60456 4.50894 2.62816 4.20863 2.71687 3.95716C2.81818 3.67084 2.9823 3.41083 3.19721 3.19621C3.41211 2.98159 3.67233 2.8178 3.95879 2.71687C4.20945 2.62816 4.50975 2.60375 5.11118 2.55654C5.35045 2.53701 5.46927 2.52725 5.58483 2.50446C5.84898 2.45235 6.10015 2.34834 6.3238 2.19846C6.42146 2.13335 6.5118 2.05603 6.69409 1.89978Z" stroke="#B21919" stroke-width="1.5"/>
<path d="M6.05849 10.9415L10.9415 6.05847" stroke="#B21919" stroke-width="1.5" stroke-linecap="round"/>
<path d="M10.8484 10.5346C10.8484 10.6178 10.8154 10.6976 10.7565 10.7565C10.6977 10.8153 10.6178 10.8484 10.5346 10.8484C10.4514 10.8484 10.3715 10.8153 10.3127 10.7565C10.2538 10.6976 10.2208 10.6178 10.2208 10.5346C10.2208 10.4513 10.2538 10.3715 10.3127 10.3127C10.3715 10.2538 10.4514 10.2207 10.5346 10.2207C10.6178 10.2207 10.6977 10.2538 10.7565 10.3127C10.8154 10.3715 10.8484 10.4513 10.8484 10.5346ZM6.77925 6.46539C6.77925 6.54862 6.74619 6.62845 6.68733 6.6873C6.62847 6.74616 6.54865 6.77923 6.46541 6.77923C6.38218 6.77923 6.30235 6.74616 6.2435 6.6873C6.18464 6.62845 6.15158 6.54862 6.15158 6.46539C6.15158 6.38215 6.18464 6.30233 6.2435 6.24347C6.30235 6.18462 6.38218 6.15155 6.46541 6.15155C6.54865 6.15155 6.62847 6.18462 6.68733 6.24347C6.74619 6.30233 6.77925 6.38215 6.77925 6.46539Z" fill="#737373" stroke="#B21919"/>
</svg>
