<svg width="18" height="20" viewBox="0 0 18 20" fill="none" xmlns="http://www.w3.org/2000/svg">
<path d="M17 19C17 16.239 13.418 14 9 14C4.582 14 1 16.239 1 19M9 11C7.67392 11 6.40215 10.4732 5.46447 9.53553C4.52678 8.59785 4 7.32608 4 6C4 4.67392 4.52678 3.40215 5.46447 2.46447C6.40215 1.52678 7.67392 1 9 1C10.3261 1 11.5979 1.52678 12.5355 2.46447C13.4732 3.40215 14 4.67392 14 6C14 7.32608 13.4732 8.59785 12.5355 9.53553C11.5979 10.4732 10.3261 11 9 11Z" stroke="#5C5C5C" stroke-width="2" stroke-linecap="round" stroke-linejoin="round"/>
</svg>
