<svg width="18" height="14" viewBox="0 0 18 14" fill="none" xmlns="http://www.w3.org/2000/svg">
<path d="M11 1H7L5 3.25H2.6C2.17565 3.25 1.76869 3.40804 1.46863 3.68934C1.16857 3.97064 1 4.35218 1 4.75V11.5C1 11.8978 1.16857 12.2794 1.46863 12.5607C1.76869 12.842 2.17565 13 2.6 13H15.4C15.8243 13 16.2313 12.842 16.5314 12.5607C16.8314 12.2794 17 11.8978 17 11.5V4.75C17 4.35218 16.8314 3.97064 16.5314 3.68934C16.2313 3.40804 15.8243 3.25 15.4 3.25H13L11 1Z" stroke="#414141" stroke-linecap="round" stroke-linejoin="round"/>
<path d="M9 10C10.3255 10 11.4 8.99264 11.4 7.75C11.4 6.50736 10.3255 5.5 9 5.5C7.67452 5.5 6.6 6.50736 6.6 7.75C6.6 8.99264 7.67452 10 9 10Z" stroke="#414141" stroke-linecap="round" stroke-linejoin="round"/>
</svg>
