<svg width="18" height="11" viewBox="0 0 18 11" fill="none" xmlns="http://www.w3.org/2000/svg">
<path d="M16.5146 1.45234C16.9951 1.92214 17.3613 2.45495 17.6133 3.05078C17.8652 3.64661 17.9941 4.27969 18 4.95C18 5.15052 17.9941 5.39115 17.9824 5.67188C17.9707 5.9526 17.9473 6.25625 17.9121 6.58281C17.877 6.90938 17.8213 7.24453 17.7451 7.58828C17.6689 7.93203 17.5723 8.27292 17.4551 8.61094C17.2793 9.10365 17.0742 9.50469 16.8398 9.81406C16.6055 10.1234 16.3623 10.3669 16.1104 10.5445C15.8584 10.7221 15.6035 10.8424 15.3457 10.9055C15.0879 10.9685 14.8477 11 14.625 11C14.4316 11 14.2559 10.9685 14.0977 10.9055C13.9395 10.8424 13.7871 10.7565 13.6406 10.6477C13.4941 10.5388 13.3594 10.4214 13.2363 10.2953C13.1133 10.1693 12.9873 10.0318 12.8584 9.88281C12.7354 9.74531 12.6152 9.61354 12.498 9.4875C12.3809 9.36146 12.2549 9.24974 12.1201 9.15234C11.9854 9.05495 11.8506 8.97188 11.7158 8.90312C11.5811 8.83438 11.4229 8.8 11.2412 8.8H6.75879C6.58887 8.80573 6.43359 8.8401 6.29297 8.90312C6.15234 8.96615 6.01465 9.04635 5.87988 9.14375C5.74512 9.24115 5.62207 9.35573 5.51074 9.4875C5.39941 9.61927 5.27637 9.75104 5.1416 9.88281C5.01855 10.0203 4.89551 10.1549 4.77246 10.2867C4.64941 10.4185 4.51465 10.5388 4.36816 10.6477C4.22168 10.7565 4.06934 10.8396 3.91113 10.8969C3.75293 10.9542 3.57422 10.9885 3.375 11C3.15234 11 2.91211 10.9685 2.6543 10.9055C2.39648 10.8424 2.1416 10.725 1.88965 10.5531C1.6377 10.3813 1.39453 10.1378 1.16016 9.82266C0.925781 9.50755 0.720703 9.10365 0.544922 8.61094C0.427734 8.27865 0.333984 7.94063 0.263672 7.59688C0.193359 7.25313 0.137695 6.9151 0.0966797 6.58281C0.0556641 6.25052 0.0292969 5.94688 0.0175781 5.67188C0.00585937 5.39687 0 5.15625 0 4.95C0 4.28542 0.125977 3.65521 0.37793 3.05938C0.629883 2.46354 0.999023 1.92786 1.48535 1.45234C1.95996 0.982552 2.50488 0.624479 3.12012 0.378125C3.73535 0.131771 4.38281 0.00572917 5.0625 0H12.9375C13.6172 0 14.2617 0.123177 14.8711 0.369531C15.4805 0.615885 16.0283 0.976823 16.5146 1.45234ZM16.3916 8.25C16.5029 7.94635 16.5908 7.63125 16.6553 7.30469C16.7197 6.97813 16.7666 6.66589 16.7959 6.36797C16.8252 6.07005 16.8457 5.79505 16.8574 5.54297C16.8691 5.29089 16.875 5.09323 16.875 4.95C16.875 4.41719 16.7725 3.91875 16.5674 3.45469C16.3623 2.99063 16.0811 2.58385 15.7236 2.23438C15.3662 1.8849 14.9502 1.6099 14.4756 1.40938C14.001 1.20885 13.4883 1.10573 12.9375 1.1H5.0625C4.51758 1.1 4.00781 1.20026 3.5332 1.40078C3.05859 1.6013 2.64258 1.8763 2.28516 2.22578C1.92773 2.57526 1.64648 2.98203 1.44141 3.44609C1.23633 3.91016 1.13086 4.41146 1.125 4.95C1.125 5.09896 1.12793 5.29661 1.13379 5.54297C1.13965 5.78932 1.16016 6.06146 1.19531 6.35938C1.23047 6.65729 1.28027 6.9724 1.34473 7.30469C1.40918 7.63698 1.49707 7.95208 1.6084 8.25C1.75488 8.6625 1.91602 8.98047 2.0918 9.20391C2.26758 9.42734 2.4375 9.59062 2.60156 9.69375C2.76562 9.79688 2.91797 9.85703 3.05859 9.87422C3.19922 9.89141 3.30469 9.9 3.375 9.9C3.50391 9.9 3.64453 9.82552 3.79688 9.67656C3.94922 9.5276 4.11328 9.35573 4.28906 9.16094C4.42969 9.00052 4.5791 8.83724 4.7373 8.67109C4.89551 8.50495 5.07422 8.35026 5.27344 8.20703C5.47266 8.0638 5.69238 7.94635 5.93262 7.85469C6.17285 7.76302 6.43945 7.71146 6.73242 7.7H11.2676C11.5605 7.71146 11.8271 7.76302 12.0674 7.85469C12.3076 7.94635 12.5244 8.06094 12.7178 8.19844C12.9111 8.33594 13.0898 8.49063 13.2539 8.6625C13.418 8.83438 13.5703 9.00052 13.7109 9.16094C13.8809 9.35 14.042 9.51901 14.1943 9.66797C14.3467 9.81693 14.4902 9.89427 14.625 9.9C14.6953 9.9 14.7979 9.89141 14.9326 9.87422C15.0674 9.85703 15.2197 9.79688 15.3896 9.69375C15.5596 9.59062 15.7324 9.42734 15.9082 9.20391C16.084 8.98047 16.2451 8.6625 16.3916 8.25ZM4.5 4.4H5.625V5.5H4.5V6.6H3.375V5.5H2.25V4.4H3.375V3.3H4.5V4.4ZM14.625 5.5C14.7832 5.5 14.9297 5.52865 15.0645 5.58594C15.1992 5.64323 15.3164 5.72057 15.416 5.81797C15.5156 5.91536 15.5977 6.03281 15.6621 6.17031C15.7266 6.30781 15.7559 6.45104 15.75 6.6C15.75 6.75469 15.7207 6.89792 15.6621 7.02969C15.6035 7.16146 15.5244 7.27604 15.4248 7.37344C15.3252 7.47083 15.2051 7.55104 15.0645 7.61406C14.9238 7.67708 14.7773 7.70573 14.625 7.7C14.4668 7.7 14.3203 7.67135 14.1855 7.61406C14.0508 7.55677 13.9336 7.47943 13.834 7.38203C13.7344 7.28464 13.6523 7.16719 13.5879 7.02969C13.5234 6.89219 13.4941 6.74896 13.5 6.6C13.5 6.44531 13.5293 6.30208 13.5879 6.17031C13.6465 6.03854 13.7256 5.92396 13.8252 5.82656C13.9248 5.72917 14.0449 5.64896 14.1855 5.58594C14.3262 5.52292 14.4727 5.49427 14.625 5.5ZM12.375 3.3C12.5332 3.3 12.6797 3.32865 12.8145 3.38594C12.9492 3.44323 13.0664 3.52057 13.166 3.61797C13.2656 3.71536 13.3477 3.83281 13.4121 3.97031C13.4766 4.10781 13.5059 4.25104 13.5 4.4C13.5 4.55469 13.4707 4.69792 13.4121 4.82969C13.3535 4.96146 13.2744 5.07604 13.1748 5.17344C13.0752 5.27083 12.9551 5.35104 12.8145 5.41406C12.6738 5.47708 12.5273 5.50573 12.375 5.5C12.2168 5.5 12.0703 5.47135 11.9355 5.41406C11.8008 5.35677 11.6836 5.27943 11.584 5.18203C11.4844 5.08464 11.4023 4.96719 11.3379 4.82969C11.2734 4.69219 11.2441 4.54896 11.25 4.4C11.25 4.24531 11.2793 4.10208 11.3379 3.97031C11.3965 3.83854 11.4756 3.72396 11.5752 3.62656C11.6748 3.52917 11.7949 3.44896 11.9355 3.38594C12.0762 3.32292 12.2227 3.29427 12.375 3.3Z" fill="#414141"/>
</svg>
