<svg width="13" height="11" viewBox="0 0 13 11" fill="none" xmlns="http://www.w3.org/2000/svg">
<path d="M9.02449 2.67986C9.02449 2.56767 8.97992 2.46007 8.90059 2.38074C8.82126 2.3014 8.71366 2.25684 8.60147 2.25684C8.48928 2.25684 8.38168 2.3014 8.30235 2.38074C8.22301 2.46007 8.17845 2.56767 8.17845 2.67986V3.3849H7.47341C7.36121 3.3849 7.25362 3.42947 7.17429 3.5088C7.09495 3.58813 7.05038 3.69573 7.05038 3.80792C7.05038 3.92011 7.09495 4.02771 7.17429 4.10704C7.25362 4.18637 7.36121 4.23094 7.47341 4.23094H8.17845V4.93598C8.17845 5.04817 8.22301 5.15577 8.30235 5.2351C8.38168 5.31444 8.48928 5.359 8.60147 5.359C8.71366 5.359 8.82126 5.31444 8.90059 5.2351C8.97992 5.15577 9.02449 5.04817 9.02449 4.93598V4.23094H9.72953C9.84172 4.23094 9.94932 4.18637 10.0287 4.10704C10.108 4.02771 10.1526 3.92011 10.1526 3.80792C10.1526 3.69573 10.108 3.58813 10.0287 3.5088C9.94932 3.42947 9.84172 3.3849 9.72953 3.3849H9.02449V2.67986Z" fill="#414141"/>
<path fill-rule="evenodd" clip-rule="evenodd" d="M13 3.98741C13 2.11144 12.1039 0.711519 10.7084 0.2022C9.41744 -0.269894 7.86772 0.0831892 6.5 1.27724C5.13228 0.0831892 3.58256 -0.269894 2.29163 0.2022C0.896093 0.711519 0 2.11144 0 3.98685C0 5.18203 0.683256 6.35747 1.534 7.36934C2.39381 8.39192 3.47493 9.30735 4.37707 9.99039L4.45809 10.0524C5.18367 10.6024 5.70851 11 6.5 11C7.29209 11 7.81572 10.6024 8.54191 10.0524L8.62293 9.99039C9.52507 9.30791 10.6062 8.39192 11.466 7.36934C12.3167 6.35747 13 5.18203 13 3.98741ZM6.83135 2.16503C8.10837 0.890881 9.43195 0.6444 10.3782 0.989586C11.3263 1.3359 12.093 2.3489 12.093 3.98741C12.093 4.89606 11.5609 5.88481 10.7519 6.84704C9.95135 7.80026 8.92828 8.66999 8.05153 9.33385C7.20926 9.97121 6.93716 10.1534 6.5 10.1534C6.06284 10.1534 5.79074 9.97121 4.94846 9.33329C4.07172 8.66999 3.04865 7.79969 2.24809 6.84761C1.43847 5.88481 0.906977 4.89606 0.906977 3.98741C0.906977 2.3489 1.67367 1.33647 2.62177 0.989586C3.56805 0.6444 4.89163 0.890881 6.16865 2.16503C6.21108 2.20738 6.26238 2.24115 6.31938 2.26424C6.37638 2.28732 6.43786 2.29924 6.5 2.29924C6.56214 2.29924 6.62362 2.28732 6.68062 2.26424C6.73762 2.24115 6.78892 2.20738 6.83135 2.16503Z" fill="#414141"/>
</svg>
