<svg width="22" height="19" viewBox="0 0 22 19" fill="none" xmlns="http://www.w3.org/2000/svg">
<path d="M16 0C13.9 0 12.074 0.956949 11 2.56062C9.926 0.956949 8.1 0 6 0C4.40927 0.00187207 2.88422 0.641255 1.75941 1.77789C0.634589 2.91452 0.00185261 4.45559 0 6.06303C0 9.01371 1.82 12.0846 5.41 15.1889C7.05505 16.6054 8.83201 17.8575 10.716 18.9278C10.8033 18.9752 10.9009 19 11 19C11.0991 19 11.1967 18.9752 11.284 18.9278C13.168 17.8575 14.945 16.6054 16.59 15.1889C20.18 12.0846 22 9.01371 22 6.06303C21.9981 4.45559 21.3654 2.91452 20.2406 1.77789C19.1158 0.641255 17.5907 0.00187207 16 0ZM11 17.695C9.359 16.738 1.2 11.6936 1.2 6.06303C1.20132 4.77703 1.70746 3.54408 2.60735 2.63474C3.50724 1.7254 4.72737 1.21394 6 1.21261C8.028 1.21261 9.731 2.30698 10.445 4.06931C10.4902 4.18051 10.5671 4.27562 10.6659 4.34256C10.7647 4.40949 10.881 4.44523 11 4.44523C11.119 4.44523 11.2353 4.40949 11.3341 4.34256C11.4329 4.27562 11.5098 4.18051 11.555 4.06931C12.269 2.30698 13.972 1.21261 16 1.21261C17.2726 1.21394 18.4928 1.7254 19.3927 2.63474C20.2925 3.54408 20.7987 4.77703 20.8 6.06303C20.8 11.6936 12.641 16.738 11 17.695Z" fill="#5C5C5C"/>
</svg>
