<svg width="20" height="20" viewBox="0 0 20 20" fill="none" xmlns="http://www.w3.org/2000/svg">
<path d="M18.5211 0.000139831H1.47887C1.2873 -0.00250479 1.09708 0.0323873 0.91908 0.102824C0.741077 0.17326 0.578776 0.27786 0.441446 0.410652C0.304116 0.543443 0.194448 0.701824 0.118704 0.876749C0.0429602 1.05167 0.00262414 1.23972 0 1.43014V18.5701C0.00262414 18.7606 0.0429602 18.9486 0.118704 19.1235C0.194448 19.2985 0.304116 19.4568 0.441446 19.5896C0.578776 19.7224 0.741077 19.827 0.91908 19.8975C1.09708 19.9679 1.2873 20.0028 1.47887 20.0001H18.5211C18.7127 20.0028 18.9029 19.9679 19.0809 19.8975C19.2589 19.827 19.4212 19.7224 19.5586 19.5896C19.6959 19.4568 19.8056 19.2985 19.8813 19.1235C19.957 18.9486 19.9974 18.7606 20 18.5701V1.43014C19.9974 1.23972 19.957 1.05167 19.8813 0.876749C19.8056 0.701824 19.6959 0.543443 19.5586 0.410652C19.4212 0.27786 19.2589 0.17326 19.0809 0.102824C18.9029 0.0323873 18.7127 -0.00250479 18.5211 0.000139831ZM6.0664 16.7401H3.04829V7.74014H6.0664V16.7401ZM4.55734 6.48014C4.14111 6.48014 3.74192 6.31578 3.4476 6.02323C3.15328 5.73067 2.98793 5.33388 2.98793 4.92014C2.98793 4.5064 3.15328 4.10961 3.4476 3.81705C3.74192 3.5245 4.14111 3.36014 4.55734 3.36014C4.77837 3.33522 5.00219 3.35699 5.21416 3.42402C5.42613 3.49105 5.62147 3.60183 5.78738 3.7491C5.95329 3.89637 6.08604 4.07682 6.17693 4.27862C6.26782 4.48043 6.31481 4.69904 6.31481 4.92014C6.31481 5.14124 6.26782 5.35985 6.17693 5.56166C6.08604 5.76346 5.95329 5.94391 5.78738 6.09118C5.62147 6.23845 5.42613 6.34923 5.21416 6.41626C5.00219 6.48329 4.77837 6.50505 4.55734 6.48014ZM16.9517 16.7401H13.9336V11.9101C13.9336 10.7001 13.501 9.91014 12.4044 9.91014C12.0651 9.91261 11.7346 10.0184 11.4576 10.2133C11.1806 10.4082 10.9703 10.6828 10.8551 11.0001C10.7764 11.2352 10.7423 11.4827 10.7545 11.7301V16.7301H7.73642V7.73014H10.7545V9.00014C11.0287 8.52725 11.4275 8.13766 11.9079 7.87334C12.3883 7.60902 12.9322 7.47999 13.4809 7.50014C15.493 7.50014 16.9517 8.79014 16.9517 11.5601V16.7401Z" fill="#A7A7A7"/>
</svg>
