<svg width="12" height="12" viewBox="0 0 12 12" fill="none" xmlns="http://www.w3.org/2000/svg">
<path d="M11.5714 5.14286H0.428572C0.314907 5.14286 0.205898 5.0977 0.125525 5.01733C0.0451527 4.93696 0 4.82795 0 4.71429V3.85714C0 3.74348 0.0451527 3.63447 0.125525 3.5541C0.205898 3.47372 0.314907 3.42857 0.428572 3.42857H11.5714C11.6851 3.42857 11.7941 3.47372 11.8745 3.5541C11.9548 3.63447 12 3.74348 12 3.85714V4.71429C12 4.82795 11.9548 4.93696 11.8745 5.01733C11.7941 5.0977 11.6851 5.14286 11.5714 5.14286ZM0.428572 10.2857H11.5714C11.6851 10.2857 11.7941 10.3309 11.8745 10.4112C11.9548 10.4916 12 10.6006 12 10.7143V11.5714C12 11.6851 11.9548 11.7941 11.8745 11.8745C11.7941 11.9548 11.6851 12 11.5714 12H0.428572C0.314907 12 0.205898 11.9548 0.125525 11.8745C0.0451527 11.7941 0 11.6851 0 11.5714V10.7143C0 10.6006 0.0451527 10.4916 0.125525 10.4112C0.205898 10.3309 0.314907 10.2857 0.428572 10.2857ZM0.34366 1.0456e-07H7.37063C7.41576 -3.51199e-05 7.46047 0.00882984 7.50218 0.0260879C7.54389 0.043346 7.58179 0.0686586 7.61371 0.100577C7.64563 0.132496 7.67094 0.170395 7.6882 0.212106C7.70546 0.253817 7.71432 0.298521 7.71429 0.343661V1.37063C7.71432 1.41577 7.70546 1.46047 7.6882 1.50218C7.67094 1.54389 7.64563 1.58179 7.61371 1.61371C7.58179 1.64563 7.54389 1.67094 7.50218 1.6882C7.46047 1.70546 7.41576 1.71432 7.37063 1.71429H0.34366C0.29852 1.71432 0.253817 1.70546 0.212106 1.6882C0.170395 1.67094 0.132496 1.64563 0.100577 1.61371C0.0686579 1.58179 0.0433455 1.54389 0.0260878 1.50218C0.00882912 1.46047 -3.52859e-05 1.41577 0 1.37063V0.343661C-3.52859e-05 0.298521 0.00882912 0.253817 0.0260878 0.212106C0.0433455 0.170395 0.0686579 0.132496 0.100577 0.100577C0.132496 0.0686586 0.170395 0.043346 0.212106 0.0260879C0.253817 0.00882984 0.29852 -3.51199e-05 0.34366 1.0456e-07ZM0.34366 6.85714H7.37063C7.41576 6.85711 7.46047 6.86597 7.50218 6.88323C7.54389 6.90049 7.58179 6.9258 7.61371 6.95772C7.64563 6.98964 7.67094 7.02754 7.6882 7.06925C7.70546 7.11096 7.71432 7.15566 7.71429 7.2008V8.22777C7.71432 8.27291 7.70546 8.31761 7.6882 8.35932C7.67094 8.40103 7.64563 8.43893 7.61371 8.47085C7.58179 8.50277 7.54389 8.52808 7.50218 8.54534C7.46047 8.5626 7.41576 8.57146 7.37063 8.57143H0.34366C0.29852 8.57146 0.253817 8.5626 0.212106 8.54534C0.170395 8.52808 0.132496 8.50277 0.100577 8.47085C0.0686579 8.43893 0.0433455 8.40103 0.0260878 8.35932C0.00882912 8.31761 -3.52859e-05 8.27291 0 8.22777V7.2008C-3.52859e-05 7.15566 0.00882912 7.11096 0.0260878 7.06925C0.0433455 7.02754 0.0686579 6.98964 0.100577 6.95772C0.132496 6.9258 0.170395 6.90049 0.212106 6.88323C0.253817 6.86597 0.29852 6.85711 0.34366 6.85714Z" fill="#414141"/>
</svg>
