<svg width="16" height="16" viewBox="0 0 16 16" fill="none" xmlns="http://www.w3.org/2000/svg">
<path d="M8 15C11.8661 15 15 11.8661 15 8C15 4.1339 11.8661 1 8 1C4.1339 1 1 4.1339 1 8C1 11.8661 4.1339 15 8 15Z" stroke="#414141" stroke-linejoin="round"/>
<path d="M4.5 9.04971C5.0799 9.04971 5.55 8.57961 5.55 7.99971C5.55 7.41981 5.0799 6.94971 4.5 6.94971C3.92011 6.94971 3.45 7.41981 3.45 7.99971C3.45 8.57961 3.92011 9.04971 4.5 9.04971Z" fill="#414141"/>
<path d="M8 9.04971C8.5799 9.04971 9.05 8.57961 9.05 7.99971C9.05 7.41981 8.5799 6.94971 8 6.94971C7.42011 6.94971 6.95 7.41981 6.95 7.99971C6.95 8.57961 7.42011 9.04971 8 9.04971Z" fill="#414141"/>
<path d="M11.5 9.04971C12.0799 9.04971 12.55 8.57961 12.55 7.99971C12.55 7.41981 12.0799 6.94971 11.5 6.94971C10.9201 6.94971 10.45 7.41981 10.45 7.99971C10.45 8.57961 10.9201 9.04971 11.5 9.04971Z" fill="#414141"/>
</svg>
