<svg width="15" height="14" viewBox="0 0 15 14" fill="none" xmlns="http://www.w3.org/2000/svg">
<path d="M11.4839 6.29346C11.2397 6.29346 11.0054 6.3905 10.8327 6.56323C10.6599 6.73596 10.5629 6.97023 10.5629 7.21451C10.5629 7.45879 10.6599 7.69306 10.8327 7.86579C11.0054 8.03852 11.2397 8.13556 11.4839 8.13556C11.7282 8.13556 11.9625 8.03852 12.1352 7.86579C12.3079 7.69306 12.405 7.45879 12.405 7.21451C12.405 6.97023 12.3079 6.73596 12.1352 6.56323C11.9625 6.3905 11.7282 6.29346 11.4839 6.29346Z" fill="#414141"/>
<path fill-rule="evenodd" clip-rule="evenodd" d="M1.53147 4.15425L3.1153 3.98532V1.06711C3.1153 0.594815 3.48895 0.200383 3.97699 0.156312C6.32068 -0.0521041 8.67932 -0.0521041 11.023 0.156312C11.511 0.200383 11.8847 0.594815 11.8847 1.06711V3.98385L13.4685 4.15352C13.7538 4.1841 14.0225 4.29815 14.2385 4.48029C14.4544 4.66243 14.6073 4.90394 14.6764 5.17229C15.1079 6.84604 15.1079 8.59603 14.6764 10.2698L14.5369 10.8126C14.5061 10.9319 14.4347 11.0379 14.3341 11.1137C14.2334 11.1894 14.1094 11.2306 13.9817 11.2305H11.8847V12.9441C11.8849 13.1647 11.7999 13.3775 11.6463 13.5411C11.4927 13.7046 11.2814 13.8074 11.0535 13.8292C8.69035 14.0569 6.31041 14.0569 3.94649 13.8292C3.71862 13.8074 3.50734 13.7046 3.35372 13.5411C3.2001 13.3775 3.11512 13.1647 3.1153 12.9441V11.2313H1.01827C0.89048 11.2312 0.766374 11.19 0.665755 11.1141C0.565135 11.0382 0.4938 10.9321 0.46313 10.8126L0.323582 10.2705C-0.107861 8.59676 -0.107861 6.84678 0.323582 5.17302C0.392725 4.90467 0.545563 4.66317 0.761521 4.48102C0.977478 4.29888 1.24619 4.18484 1.53147 4.15425ZM10.7409 3.87881C8.58391 3.70845 6.41609 3.70845 4.25914 3.87881V1.23898C6.41559 1.05723 8.58441 1.05723 10.7409 1.23898V3.87881ZM10.7409 10.3146C10.7402 10.2588 10.7218 10.2046 10.6881 10.1593C10.6545 10.114 10.6071 10.0797 10.5525 10.0612C8.52149 9.8878 6.47852 9.8878 4.44749 10.0612C4.39241 10.0799 4.34472 10.1146 4.31098 10.1605C4.27724 10.2064 4.25913 10.2613 4.25914 10.3175V12.7517C6.41492 12.9478 8.58508 12.9478 10.7409 12.7517V10.3146ZM13.5341 10.1295H11.8847V9.8849C11.8849 9.66433 11.7999 9.45157 11.6463 9.28799C11.4927 9.12441 11.2814 9.02169 11.0535 8.99982L10.7432 8.97117C10.6995 8.96257 10.6555 8.95595 10.6112 8.95134C8.54306 8.73673 6.45694 8.73673 4.38877 8.95134C4.3445 8.95598 4.30048 8.9626 4.25685 8.97117L3.94649 9.00055C3.71875 9.02242 3.50757 9.12502 3.35397 9.28845C3.20037 9.45188 3.11531 9.66446 3.1153 9.8849V10.1295H1.46589L1.43386 10.0054C1.04737 8.50597 1.04737 6.9383 1.43386 5.43891C1.44663 5.38903 1.47497 5.34413 1.51506 5.31024C1.55514 5.27636 1.60505 5.25512 1.65806 5.24941L3.2457 5.07974C6.07319 4.77701 8.92681 4.77701 11.7543 5.07974L13.3419 5.24941C13.451 5.26116 13.5402 5.33682 13.5661 5.43891C13.9526 6.93831 13.9526 8.50597 13.5661 10.0054L13.5341 10.1295Z" fill="#414141"/>
</svg>
