<svg width="37" height="31" viewBox="0 0 37 31" fill="none" xmlns="http://www.w3.org/2000/svg">
<path d="M7.8457 4.05169L7.18281 4.27656L7.18281 4.27656L7.8457 4.05169ZM14.391 30.7C14.7776 30.7 15.091 30.3866 15.091 30C15.091 29.6134 14.7776 29.3 14.391 29.3V30.7ZM9.70716 29.9866L9.63087 30.6825L9.63386 30.6828L9.70716 29.9866ZM7.73892 27.303L7.06235 27.1234C7.05965 27.1336 7.05717 27.1438 7.05493 27.1541L7.73892 27.303ZM7.9228 26.7185L8.58045 26.9587L8.58481 26.946L7.9228 26.7185ZM8.16344 26.0493L8.80704 26.3246L8.8077 26.323L8.16344 26.0493ZM12.0182 23.3188L11.9718 22.6204L11.9674 22.6207L12.0182 23.3188ZM24.9718 24.0077C25.3584 24.0077 25.6718 23.6943 25.6718 23.3077C25.6718 22.9211 25.3584 22.6077 24.9718 22.6077V24.0077ZM11.8457 22.5715L12.2266 21.9842L12.226 21.9839L11.8457 22.5715ZM8.99208 17.9003L9.63371 17.6205L9.63362 17.6203L8.99208 17.9003ZM8.60842 17.0214L7.96679 17.3012L7.96688 17.3014L8.60842 17.0214ZM6.86039 9.19585L6.27977 8.80485L6.27869 8.80646L6.86039 9.19585ZM35.6711 9.35869L36.274 9.00304L36.2737 9.00243L35.6711 9.35869ZM32.7698 17.704L32.1648 17.352L32.1642 17.353L32.7698 17.704ZM32.1274 18.8127L32.7324 19.1647L32.733 19.1637L32.1274 18.8127ZM29.1557 22.7054L28.8094 22.0971L28.8088 22.0974L29.1557 22.7054ZM22.087 30.7C22.4736 30.7 22.787 30.3866 22.787 30C22.787 29.6134 22.4736 29.3 22.087 29.3V30.7ZM18.0252 29.3C17.6386 29.3 17.3252 29.6134 17.3252 30C17.3252 30.3866 17.6386 30.7 18.0252 30.7V29.3ZM31.8261 30.7C32.2127 30.7 32.5261 30.3866 32.5261 30C32.5261 29.6134 32.2127 29.3 31.8261 29.3V30.7ZM27.7643 29.3C27.3777 29.3 27.0643 29.6134 27.0643 30C27.0643 30.3866 27.3777 30.7 27.7643 30.7V29.3ZM0 1.7H3.53692V0.3H0V1.7ZM3.53692 1.7C4.3428 1.7 4.8894 1.70102 5.31071 1.74833C5.71483 1.79371 5.93163 1.8755 6.09695 1.99269L6.90657 0.850539C6.47712 0.546116 6.00152 0.417101 5.46692 0.357074C4.94952 0.298977 4.31108 0.3 3.53692 0.3V1.7ZM6.09695 1.99269C6.26149 2.10933 6.40695 2.28339 6.57681 2.64217C6.75472 3.01797 6.92786 3.52498 7.18281 4.27656L8.5086 3.82682C8.26412 3.10609 8.06267 2.50888 7.84217 2.04312C7.61361 1.56034 7.33682 1.15552 6.90657 0.850539L6.09695 1.99269ZM7.18281 4.27656L8.41778 7.91718L9.74358 7.46744L8.5086 3.82682L7.18281 4.27656ZM14.391 29.3H10.3292V30.7H14.391V29.3ZM10.3292 29.3C9.98018 29.3 9.86141 29.299 9.78045 29.2905L9.63386 30.6828C9.80716 30.701 10.0198 30.7 10.3292 30.7V29.3ZM9.78344 29.2908C9.5637 29.2667 9.35208 29.1977 9.16225 29.0887L8.46526 30.3029C8.82313 30.5083 9.2202 30.6374 9.63087 30.6824L9.78344 29.2908ZM9.16225 29.0887C8.97243 28.9797 8.8089 28.8334 8.68162 28.6599L7.5527 29.4879C7.7963 29.82 8.10735 30.0974 8.46526 30.3029L9.16225 29.0887ZM8.68162 28.6599C8.55437 28.4864 8.46604 28.2893 8.42167 28.0816L7.05255 28.374C7.13847 28.7763 7.30908 29.1557 7.5527 29.4879L8.68162 28.6599ZM8.42167 28.0816C8.3773 27.8739 8.37772 27.6594 8.4229 27.4519L7.05493 27.1541C6.96744 27.5561 6.96662 27.9717 7.05255 28.374L8.42167 28.0816ZM8.41549 27.4826C8.46246 27.3056 8.51746 27.1308 8.58033 26.9586L7.26527 26.4784C7.1879 26.6903 7.12019 26.9055 7.06235 27.1234L8.41549 27.4826ZM8.58481 26.946C8.70888 26.5849 8.75424 26.448 8.80704 26.3246L7.51984 25.774C7.44097 25.9584 7.37282 26.1651 7.2608 26.4911L8.58481 26.946ZM8.8077 26.323C9.07962 25.683 9.52738 25.1279 10.1029 24.7202L9.29367 23.5778C8.50833 24.134 7.89358 24.8944 7.51918 25.7756L8.8077 26.323ZM10.1029 24.7202C10.6785 24.3125 11.359 24.0686 12.069 24.017L11.9674 22.6207C11.0044 22.6907 10.0789 23.0216 9.29367 23.5778L10.1029 24.7202ZM12.0646 24.0173C12.2038 24.0081 12.36 24.0077 12.7378 24.0077V22.6077C12.3801 22.6077 12.1685 22.6073 11.9718 22.6204L12.0646 24.0173ZM12.7378 24.0077H24.9718V22.6077H12.7378V24.0077ZM24.2431 22.6077H17.3395V24.0077H24.2431V22.6077ZM17.3395 22.6077C15.8717 22.6077 14.8253 22.6068 14.0023 22.5196C13.1955 22.4341 12.6683 22.2707 12.2266 21.9842L11.4648 23.1588C12.1581 23.6085 12.925 23.8132 13.8548 23.9118C14.7685 24.0086 15.9014 24.0077 17.3395 24.0077V22.6077ZM12.226 21.9839C11.7839 21.6977 11.425 21.2876 11.0289 20.5958C10.624 19.8887 10.2119 18.9461 9.63371 17.6205L8.35045 18.1801C8.91644 19.4779 9.36242 20.5028 9.81397 21.2915C10.2743 22.0954 10.7701 22.7092 11.4653 23.1592L12.226 21.9839ZM9.63362 17.6203L9.24996 16.7413L7.96688 17.3014L8.35054 18.1803L9.63362 17.6203ZM9.25005 16.7415C8.32124 14.6119 7.65922 13.0891 7.34293 11.9108C7.03041 10.7464 7.10411 10.0901 7.44209 9.58523L6.27869 8.80646C5.60871 9.80732 5.63702 10.9557 5.99079 12.2737C6.3408 13.5776 7.05677 15.2147 7.96679 17.3012L9.25005 16.7415ZM7.44101 9.58684C7.78306 9.07891 8.37716 8.75026 9.59676 8.57297C10.8273 8.39408 12.5154 8.39231 14.8695 8.39231V6.99231C12.5608 6.99231 10.7505 6.99053 9.39536 7.18753C8.02923 7.38612 6.95022 7.80925 6.27977 8.80485L7.44101 9.58684ZM14.8695 8.39231H26.856V6.99231H14.8695V8.39231ZM26.856 8.39231C29.49 8.39231 31.3858 8.39411 32.7511 8.59327C34.1123 8.79184 34.7402 9.15963 35.0686 9.71496L36.2737 9.00243C35.6167 7.89136 34.4478 7.42596 32.9532 7.20794C31.4626 6.9905 29.4435 6.99231 26.856 6.99231V8.39231ZM35.0682 9.71435C35.393 10.2649 35.4076 10.9738 34.9098 12.2283C34.4094 13.4892 33.4719 15.1051 32.1648 17.352L33.3749 18.056C34.658 15.8503 35.6626 14.1267 36.2111 12.7447C36.7621 11.3563 36.9322 10.1188 36.274 9.00304L35.0682 9.71435ZM32.1642 17.353L31.5217 18.4617L32.733 19.1637L33.3755 18.055L32.1642 17.353ZM31.5223 18.4607C30.8775 19.569 30.4187 20.3562 29.9926 20.9452C29.5759 21.5214 29.2216 21.8624 28.8094 22.0971L29.5021 23.3137C30.1478 22.9461 30.6413 22.4372 31.127 21.7657C31.6033 21.1072 32.1015 20.2492 32.7324 19.1647L31.5223 18.4607ZM28.8088 22.0974C28.3971 22.3323 27.9182 22.4659 27.1995 22.5357C26.4662 22.6069 25.5414 22.6077 24.2431 22.6077V24.0077C25.5146 24.0077 26.5183 24.0085 27.3349 23.9291C28.1662 23.8484 28.8587 23.6808 29.5026 23.3134L28.8088 22.0974ZM22.087 29.3H18.0252V30.7H22.087V29.3ZM31.8261 29.3H27.7643V30.7H31.8261V29.3Z" fill="#737373"/>
</svg>
