<svg width="12" height="18" viewBox="0 0 12 18" fill="none" xmlns="http://www.w3.org/2000/svg">
<path d="M3.22222 3.85742H8.77778C10.0051 3.85742 11 4.88077 11 6.14314V11.8574C11 13.1198 10.0051 14.1431 8.77778 14.1431H3.22222C1.99492 14.1431 1 13.1198 1 11.8574V6.14314C1 4.88077 1.99492 3.85742 3.22222 3.85742Z" stroke="#414141" stroke-width="0.8" stroke-linejoin="round"/>
<path d="M8.77778 3.85714V1.28571C8.77778 1.20994 8.74851 1.13727 8.69642 1.08368C8.64433 1.0301 8.57367 1 8.5 1H3.5C3.42633 1 3.35568 1.0301 3.30358 1.08368C3.25149 1.13727 3.22222 1.20994 3.22222 1.28571V3.85714M3.22222 14.1429V16.7143C3.22222 16.7901 3.25149 16.8627 3.30358 16.9163C3.35568 16.9699 3.42633 17 3.5 17H8.5C8.57367 17 8.64433 16.9699 8.69642 16.9163C8.74851 16.8627 8.77778 16.7901 8.77778 16.7143V14.1429" stroke="#414141" stroke-width="0.8" stroke-linejoin="round"/>
</svg>
