<svg width="19" height="20" viewBox="0 0 19 20" fill="none" xmlns="http://www.w3.org/2000/svg">
<path d="M14.393 18.768L1.12802 1.968C1.0581 1.87931 1.01485 1.77307 1.00319 1.66137C0.991535 1.54967 1.01193 1.43698 1.06206 1.33613C1.11219 1.23528 1.19005 1.15032 1.28677 1.09089C1.3835 1.03147 1.49521 0.99998 1.6092 1H4.12678C4.21946 1.00014 4.31089 1.0211 4.3941 1.06131C4.47731 1.10151 4.55011 1.15989 4.60695 1.232L17.872 18.032C17.9419 18.1207 17.9851 18.2269 17.9968 18.3386C18.0085 18.4503 17.9881 18.563 17.9379 18.6639C17.8878 18.7647 17.81 18.8497 17.7132 18.9091C17.6165 18.9685 17.5048 19 17.3908 19H14.8732C14.7805 18.9999 14.6891 18.9789 14.6059 18.9387C14.5227 18.8985 14.4499 18.8401 14.393 18.768Z" stroke="#A7A7A7" stroke-width="1.5"/>
<path d="M17.6212 1L1.3787 19" stroke="#A7A7A7" stroke-width="1.5" stroke-linecap="round"/>
</svg>
