<svg width="22" height="19" viewBox="0 0 22 19" fill="none" xmlns="http://www.w3.org/2000/svg">
<path d="M16.2001 5.20025H13.8001C13.4689 5.20025 13.2001 5.46906 13.2001 5.80026C13.2001 6.13146 13.4689 6.40026 13.8001 6.40026H16.2001C16.5307 6.40026 16.8001 6.66967 16.8001 7.00027V8.20028C16.8001 8.53088 16.5307 8.80028 16.2001 8.80028H1.80001C1.46941 8.80028 1.20001 8.53088 1.20001 8.20028V7.00027C1.20001 6.66967 1.46941 6.40026 1.80001 6.40026H4.20003C4.53124 6.40026 4.80004 6.13146 4.80004 5.80026C4.80004 5.46906 4.53124 5.20025 4.20003 5.20025H1.80001C0.807607 5.20025 0 6.00786 0 7.00027V8.20028C0 9.00429 0.533404 9.67869 1.26241 9.90909L2.24642 17.2898C2.37422 18.2492 3.23223 19.0004 4.20003 19.0004H13.8001C14.7679 19.0004 15.6259 18.2492 15.7531 17.2904L16.7371 9.90909C17.4667 9.67869 18.0001 9.00429 18.0001 8.20028V7.00027C18.0001 6.00786 17.1925 5.20025 16.2001 5.20025ZM14.5639 17.132C14.5165 17.4878 14.1595 17.8004 13.8001 17.8004H4.20003C3.84063 17.8004 3.48363 17.4878 3.43623 17.1314L2.48522 10.0003H15.5149L14.5639 17.132Z" fill="#414141"/>
<path d="M5.17682 8.15768C5.25002 8.18648 5.32562 8.20028 5.40002 8.20028C5.63823 8.20028 5.86323 8.05748 5.95743 7.82288L8.35745 1.82283C8.48045 1.51503 8.33105 1.16582 8.02325 1.04282C7.71364 0.92042 7.36624 1.06922 7.24324 1.37702L4.84322 7.37707C4.71962 7.68548 4.86962 8.03408 5.17682 8.15768ZM12.0427 7.82348C12.1369 8.05748 12.3625 8.20028 12.6001 8.20028C12.6745 8.20028 12.7495 8.18648 12.8227 8.15708C13.1305 8.03348 13.2799 7.68488 13.1569 7.37707L10.7569 1.37702C10.6339 1.06982 10.2853 0.92162 9.97686 1.04282C9.66906 1.16642 9.51966 1.51503 9.64266 1.82283L12.0427 7.82348ZM9.00005 16.0003C9.33126 16.0003 9.60006 15.7315 9.60006 15.4003V12.4003C9.60006 12.0691 9.33126 11.8003 9.00005 11.8003C8.66885 11.8003 8.40005 12.0691 8.40005 12.4003V15.4003C8.40005 15.7315 8.66885 16.0003 9.00005 16.0003ZM12.0001 16.0003C12.3313 16.0003 12.6001 15.7315 12.6001 15.4003V12.4003C12.6001 12.0691 12.3313 11.8003 12.0001 11.8003C11.6689 11.8003 11.4001 12.0691 11.4001 12.4003V15.4003C11.4001 15.7315 11.6689 16.0003 12.0001 16.0003ZM6.00003 16.0003C6.33123 16.0003 6.60003 15.7315 6.60003 15.4003V12.4003C6.60003 12.0691 6.33123 11.8003 6.00003 11.8003C5.66883 11.8003 5.40002 12.0691 5.40002 12.4003V15.4003C5.40002 15.7315 5.66883 16.0003 6.00003 16.0003Z" fill="#414141"/>
<circle cx="16.5" cy="5.5" r="5.5" fill="#169C74"/>
<path d="M17.3801 4.6625H19.7484V6.37167H17.3801V9.04333H15.5834V6.37167H13.2093V4.6625H15.5834V2.10167H17.3801V4.6625Z" fill="white"/>
</svg>
