<svg width="18" height="18" viewBox="0 0 18 18" fill="none" xmlns="http://www.w3.org/2000/svg">
<path d="M17.7797 16.8012C17.8477 16.8646 17.9022 16.941 17.9401 17.0259C17.9779 17.1108 17.9983 17.2025 17.9999 17.2955C18.0015 17.3884 17.9844 17.4808 17.9496 17.567C17.9148 17.6532 17.863 17.7315 17.7972 17.7972C17.7315 17.863 17.6532 17.9148 17.567 17.9496C17.4808 17.9844 17.3884 18.0015 17.2955 17.9999C17.2025 17.9983 17.1108 17.9779 17.0259 17.9401C16.941 17.9022 16.8646 17.8477 16.8012 17.7797L8.98273 9.96235L1.16427 17.7797C1.03303 17.9019 0.85945 17.9685 0.680095 17.9654C0.50074 17.9622 0.329615 17.8895 0.202772 17.7627C0.0759294 17.6358 0.00327237 17.4647 0.000107859 17.2854C-0.00305665 17.106 0.0635184 16.9324 0.185808 16.8012L8.00312 8.98273L0.185808 1.16427C0.0635184 1.03303 -0.00305665 0.85945 0.000107859 0.680095C0.00327237 0.50074 0.0759294 0.329615 0.202772 0.202772C0.329615 0.0759294 0.50074 0.00327237 0.680095 0.000107859C0.85945 -0.00305665 1.03303 0.0635184 1.16427 0.185808L8.98273 8.00312L16.8012 0.185808C16.9324 0.0635184 17.106 -0.00305665 17.2854 0.000107859C17.4647 0.00327237 17.6358 0.0759294 17.7627 0.202772C17.8895 0.329615 17.9622 0.50074 17.9654 0.680095C17.9685 0.85945 17.9019 1.03303 17.7797 1.16427L9.96235 8.98273L17.7797 16.8012Z" fill="#414141"/>
</svg>
