<svg width="15" height="17" viewBox="0 0 15 17" fill="none" xmlns="http://www.w3.org/2000/svg">
<path d="M5.79545 2.83333H9.20455C9.20455 2.36368 9.02496 1.91326 8.7053 1.58117C8.38563 1.24907 7.95207 1.0625 7.5 1.0625C7.04793 1.0625 6.61437 1.24907 6.2947 1.58117C5.97504 1.91326 5.79545 2.36368 5.79545 2.83333ZM4.77273 2.83333C4.77273 2.08189 5.06006 1.36122 5.57153 0.829864C6.08299 0.298511 6.77668 0 7.5 0C8.22332 0 8.91701 0.298511 9.42847 0.829864C9.93994 1.36122 10.2273 2.08189 10.2273 2.83333H14.4886C14.6243 2.83333 14.7543 2.8893 14.8502 2.98893C14.9461 3.08856 15 3.22369 15 3.36458C15 3.50548 14.9461 3.64061 14.8502 3.74023C14.7543 3.83986 14.6243 3.89583 14.4886 3.89583H13.5955L12.7657 14.2396C12.7053 14.9921 12.375 15.6935 11.8401 16.2048C11.3053 16.7161 10.605 16.9999 9.87818 17H5.12182C4.39499 16.9999 3.69473 16.7161 3.15989 16.2048C2.62505 15.6935 2.29469 14.9921 2.23432 14.2396L1.40455 3.89583H0.511364C0.375742 3.89583 0.245674 3.83986 0.149775 3.74023C0.0538756 3.64061 0 3.50548 0 3.36458C0 3.22369 0.0538756 3.08856 0.149775 2.98893C0.245674 2.8893 0.375742 2.83333 0.511364 2.83333H4.77273ZM3.25364 14.1511C3.29263 14.638 3.50633 15.0919 3.85237 15.4228C4.19841 15.7537 4.65151 15.9374 5.12182 15.9375H9.87818C10.3485 15.9374 10.8016 15.7537 11.1476 15.4228C11.4937 15.0919 11.7074 14.638 11.7464 14.1511L12.57 3.89583H2.43068L3.25364 14.1511ZM5.96591 6.375C6.10153 6.375 6.2316 6.43097 6.3275 6.5306C6.4234 6.63023 6.47727 6.76535 6.47727 6.90625V12.9271C6.47727 13.068 6.4234 13.2031 6.3275 13.3027C6.2316 13.4024 6.10153 13.4583 5.96591 13.4583C5.83029 13.4583 5.70022 13.4024 5.60432 13.3027C5.50842 13.2031 5.45455 13.068 5.45455 12.9271V6.90625C5.45455 6.76535 5.50842 6.63023 5.60432 6.5306C5.70022 6.43097 5.83029 6.375 5.96591 6.375ZM9.54545 6.90625C9.54545 6.76535 9.49158 6.63023 9.39568 6.5306C9.29978 6.43097 9.16971 6.375 9.03409 6.375C8.89847 6.375 8.7684 6.43097 8.6725 6.5306C8.5766 6.63023 8.52273 6.76535 8.52273 6.90625V12.9271C8.52273 13.068 8.5766 13.2031 8.6725 13.3027C8.7684 13.4024 8.89847 13.4583 9.03409 13.4583C9.16971 13.4583 9.29978 13.4024 9.39568 13.3027C9.49158 13.2031 9.54545 13.068 9.54545 12.9271V6.90625Z" fill="#737373"/>
</svg>
