<svg width="13" height="13" viewBox="0 0 13 13" fill="none" xmlns="http://www.w3.org/2000/svg">
<path fill-rule="evenodd" clip-rule="evenodd" d="M2.23902 0H10.761C11.1643 0 11.5089 -5.21549e-08 11.7847 0.0380005C12.0767 0.0786678 12.3591 0.170003 12.5913 0.410006C12.8271 0.654677 12.9208 0.959348 12.9619 1.27602C13 1.56736 13 1.92936 13 2.3427V2.86004C13 3.18605 13 3.46672 12.9782 3.70206C12.954 3.95539 12.9027 4.19206 12.7781 4.4194C12.6541 4.6454 12.4879 4.80941 12.2956 4.95608C12.1148 5.09474 11.8844 5.23808 11.6123 5.40675L9.83344 6.51077C9.42833 6.7621 9.28744 6.85277 9.19312 6.94277C8.97726 7.14944 8.8533 7.37945 8.79526 7.66678C8.77046 7.79012 8.76744 7.94479 8.76744 8.41546V10.2368C8.76744 10.8375 8.76744 11.3475 8.71121 11.7402C8.65195 12.1569 8.51349 12.5569 8.1507 12.8069C7.79577 13.0515 7.40577 13.0289 7.02605 12.9295C6.66023 12.8342 6.20977 12.6395 5.66921 12.4069L5.61721 12.3842C5.36326 12.2749 5.14195 12.1795 4.9666 12.0795C4.77795 11.9722 4.6026 11.8388 4.46898 11.6308C4.33293 11.4202 4.27912 11.1948 4.25433 10.9642C4.23256 10.7542 4.23256 10.5022 4.23256 10.2208V8.41546C4.23256 7.94479 4.23014 7.79012 4.20474 7.66678C4.14985 7.38293 4.00966 7.12783 3.80688 6.94277C3.71256 6.85277 3.57107 6.7621 3.16656 6.51077L1.38767 5.40675C1.11558 5.23808 0.885209 5.09474 0.704419 4.95608C0.512139 4.80941 0.34586 4.6454 0.221907 4.4194C0.0973488 4.19206 0.0459535 3.95473 0.0223721 3.70206C-3.604e-08 3.46739 0 3.18605 0 2.86004V2.3427C0 1.92936 -2.2525e-08 1.56736 0.038093 1.27602C0.0792093 0.959348 0.17293 0.654677 0.408744 0.410006C0.64093 0.170003 0.922698 0.0786678 1.21535 0.0380005C1.49107 -5.21549e-08 1.83572 0 2.23902 0ZM1.32902 1.03068C1.12707 1.05868 1.06298 1.10402 1.02972 1.13935C0.999488 1.17002 0.960791 1.22402 0.935395 1.41802C0.908186 1.63002 0.906977 1.91936 0.906977 2.3767V2.83671C0.906977 3.19272 0.906977 3.42205 0.923907 3.59939C0.939628 3.76406 0.966233 3.84339 0.998884 3.90273C1.03214 3.96339 1.08777 4.03206 1.2214 4.13473C1.36288 4.24273 1.55577 4.3634 1.85023 4.54607L3.61158 5.63942L3.65995 5.66942C3.99856 5.87942 4.22833 6.02209 4.40126 6.18743C4.751 6.51274 4.99335 6.95645 5.09056 7.44945C5.13953 7.69412 5.13953 7.96945 5.13953 8.35613V10.1955C5.13953 10.5102 5.14014 10.7035 5.15586 10.8488C5.16916 10.9808 5.19153 11.0255 5.20786 11.0515C5.226 11.0795 5.26228 11.1228 5.3826 11.1915C5.51079 11.2642 5.68795 11.3408 5.9673 11.4615C6.54837 11.7122 6.93958 11.8795 7.23526 11.9568C7.52488 12.0328 7.62042 11.9935 7.6694 11.9595C7.71051 11.9308 7.774 11.8728 7.81572 11.5842C7.85926 11.2795 7.86047 10.8488 7.86047 10.1948V8.35613C7.86047 7.96945 7.86047 7.69412 7.91005 7.44945C8.00709 6.95654 8.24923 6.51284 8.59874 6.18743C8.77167 6.02209 9.00205 5.87876 9.33944 5.66942L9.38842 5.63942L11.1498 4.54607C11.4442 4.3634 11.6371 4.24273 11.7786 4.13473C11.9122 4.03206 11.9679 3.96339 12.0011 3.90273C12.0338 3.84339 12.0604 3.76406 12.0755 3.59939C12.0924 3.42205 12.093 3.19272 12.093 2.83604V2.37604C12.093 1.91936 12.0918 1.62936 12.0646 1.41802C12.0392 1.22402 11.9999 1.17002 11.9709 1.13935C11.937 1.10468 11.8729 1.05868 11.671 1.03068C11.4593 1.00068 11.1721 1.00002 10.7326 1.00002H2.26744C1.82786 1.00002 1.54126 1.00068 1.32902 1.03068Z" fill="#414141"/>
</svg>
