<svg width="22" height="20" viewBox="0 0 22 20" fill="none" xmlns="http://www.w3.org/2000/svg">
<path d="M11 3.86445C11.1593 3.86445 11.3091 3.7885 11.4033 3.65998L11.4035 3.65979L11.4039 3.65923L11.4078 3.65392L11.4261 3.62974C11.4428 3.60779 11.4686 3.57446 11.5029 3.5314C11.5715 3.44522 11.6742 3.32031 11.8072 3.16959C12.0738 2.86749 12.4592 2.4652 12.9338 2.06413C13.8979 1.24947 15.1588 0.5 16.5 0.5C19.2566 0.5 21.5 2.757 21.5 5.55134C21.5 6.71806 21.2747 8.7176 19.8992 11.1504C18.5225 13.5855 15.9782 16.4815 11.2989 19.4146C11.2081 19.4708 11.1047 19.5 11 19.5C10.8953 19.5 10.7919 19.4708 10.7011 19.4146C6.02184 16.4815 3.47754 13.5855 2.10079 11.1504C0.725304 8.7176 0.5 6.71806 0.5 5.55134C0.5 2.757 2.74337 0.5 5.5 0.5C6.84118 0.5 8.10214 1.24947 9.06619 2.06413C9.54081 2.4652 9.92622 2.86749 10.1928 3.16959C10.3258 3.32031 10.4285 3.44522 10.4971 3.5314C10.5314 3.57446 10.5572 3.60779 10.5739 3.62974L10.5922 3.65392L10.5961 3.65923L10.5965 3.65979C10.5966 3.65986 10.5966 3.65992 10.5967 3.65998L10.5967 3.66003C10.6909 3.78852 10.8407 3.86445 11 3.86445Z" fill="white" stroke="#737373" stroke-linecap="round" stroke-linejoin="round"/>
</svg>
