<svg width="12" height="18" viewBox="0 0 12 18" fill="none" xmlns="http://www.w3.org/2000/svg">
<path d="M10.07 0H1.92998C1.39014 0.0341391 0.884896 0.291144 0.524002 0.715188C0.163109 1.13923 -0.0242852 1.69606 0.00252717 2.26472V15.7353C-0.0242852 16.3039 0.163109 16.8608 0.524002 17.2848C0.884896 17.7089 1.39014 17.9659 1.92998 18H10.07C10.6099 17.9659 11.1151 17.7089 11.476 17.2848C11.8369 16.8608 12.0243 16.3039 11.9975 15.7353V2.26472C12.0243 1.69606 11.8369 1.13923 11.476 0.715188C11.1151 0.291144 10.6099 0.0341391 10.07 0ZM11.137 15.7353C11.1633 16.0637 11.0663 16.3898 10.8668 16.6439C10.6674 16.8979 10.3813 17.0595 10.07 17.0941H1.92998C1.61867 17.0595 1.33263 16.8979 1.13318 16.6439C0.933726 16.3898 0.836735 16.0637 0.862997 15.7353V2.26472C0.836735 1.93632 0.933726 1.61016 1.13318 1.35615C1.33263 1.10214 1.61867 0.940502 1.92998 0.905888H3.2465V1.36789C3.2465 1.60815 3.33715 1.83856 3.49852 2.00845C3.65989 2.17834 3.87876 2.27378 4.10697 2.27378H7.89303C8.12124 2.27378 8.34011 2.17834 8.50148 2.00845C8.66285 1.83856 8.7535 1.60815 8.7535 1.36789V0.905888H10.07C10.3813 0.940502 10.6674 1.10214 10.8668 1.35615C11.0663 1.61016 11.1633 1.93632 11.137 2.26472V15.7353Z" fill="#414141"/>
<path d="M4.26251 14.4592H7.69108C7.80475 14.4592 7.91375 14.414 7.99413 14.3337C8.0745 14.2533 8.11965 14.1443 8.11965 14.0306C8.11965 13.917 8.0745 13.8079 7.99413 13.7276C7.91375 13.6472 7.80475 13.6021 7.69108 13.6021H4.26251C4.14885 13.6021 4.03984 13.6472 3.95946 13.7276C3.87909 13.8079 3.83394 13.917 3.83394 14.0306C3.83394 14.1443 3.87909 14.2533 3.95946 14.3337C4.03984 14.414 4.14885 14.4592 4.26251 14.4592Z" fill="#414141"/>
</svg>
