<svg width="24" height="24" viewBox="0 0 24 24" fill="none" xmlns="http://www.w3.org/2000/svg">
<path d="M0 1H1.76393C2.52148 1 3.214 1.428 3.55279 2.10557L8.25 11.5M4.5 3.5H21.2516C22.025 3.5 22.5057 4.34039 22.1135 5.00702L18.58 11.014C18.2206 11.6249 17.5648 12 16.8561 12H8.5L8.25 11.5M8.25 11.5L6.4125 14.44C5.57994 15.7721 6.53762 17.5 8.1085 17.5H21" stroke="#5C5C5C" stroke-width="1.7"/>
<path d="M11.4286 22C11.4286 22.837 10.7645 23.5 9.96429 23.5C9.16404 23.5 8.5 22.837 8.5 22C8.5 21.163 9.16404 20.5 9.96429 20.5C10.7645 20.5 11.4286 21.163 11.4286 22ZM20.5 22C20.5 22.837 19.836 23.5 19.0357 23.5C18.2355 23.5 17.5714 22.837 17.5714 22C17.5714 21.163 18.2355 20.5 19.0357 20.5C19.836 20.5 20.5 21.163 20.5 22Z" fill="#5C5C5C" stroke="#5C5C5C"/>
</svg>
