<svg width="17" height="17" viewBox="0 0 17 17" fill="none" xmlns="http://www.w3.org/2000/svg">
<path d="M15.9604 6.38501C15.9132 6.24618 15.8264 6.12419 15.7108 6.0341C15.5951 5.94402 15.4555 5.88978 15.3094 5.87808L11.0336 5.53837L9.18332 1.44317C9.12439 1.31127 9.02855 1.19924 8.90735 1.1206C8.78615 1.04197 8.64479 1.00008 8.50031 1C8.35583 0.999921 8.21441 1.04165 8.09313 1.12016C7.97185 1.19866 7.87588 1.31058 7.81681 1.44242L5.96655 5.53837L1.69077 5.87808C1.54711 5.88946 1.40978 5.94198 1.29519 6.02936C1.1806 6.11674 1.09361 6.23527 1.04464 6.37079C0.995665 6.5063 0.986773 6.65305 1.01903 6.79349C1.05128 6.93392 1.12332 7.06209 1.22652 7.16266L4.38629 10.2425L3.26878 15.0809C3.23485 15.2273 3.24573 15.3806 3.3 15.5208C3.35427 15.661 3.44943 15.7816 3.57314 15.8671C3.69684 15.9525 3.84338 15.9988 3.99373 16C4.14407 16.0011 4.2913 15.9571 4.41629 15.8735L8.50006 13.1514L12.5838 15.8735C12.7116 15.9583 12.8623 16.002 13.0156 15.9986C13.1689 15.9953 13.3175 15.945 13.4414 15.8547C13.5653 15.7644 13.6586 15.6383 13.7087 15.4934C13.7588 15.3484 13.7633 15.1917 13.7216 15.0441L12.3498 10.2448L15.7519 7.18366C15.9746 6.98268 16.0564 6.66922 15.9604 6.38501Z" fill="#FFD643" stroke="#856B0F"/>
</svg>
